<svg width="2010" height="330" viewBox="0 0 2010 330" fill="none" xmlns="http://www.w3.org/2000/svg">
<rect width="330" height="330" rx="68" fill="#D61C4E" fill-opacity="0.1"/>
<path d="M60.7407 155.468C60.7407 155.468 91.3574 141.336 115.219 130.482M197.63 194.456L237.031 176.123C285.823 146.568 238.591 74.3632 198.946 92.3967C177.663 102.078 142.877 117.901 115.219 130.482M115.219 130.482L170.275 254.419" stroke="#D61C4E" stroke-width="40" stroke-linecap="round"/>
<path d="M420.582 127.765C420.582 128.986 420.318 129.84 419.789 130.329C419.3 130.776 418.446 131 417.225 131H404.225C403.004 131 402.129 130.776 401.6 130.329C401.112 129.84 400.868 128.986 400.868 127.765V59.5278H382.679C381.703 59.5278 380.97 59.3651 380.482 59.0396C379.424 58.3071 378.325 57.4323 377.186 56.415C376.087 55.3978 374.887 54.1771 373.585 52.7529C373.178 52.224 372.975 51.7967 372.975 51.4712C372.975 51.105 373.178 50.6981 373.585 50.2505C374.887 48.8263 376.087 47.6056 377.186 46.5884C378.325 45.5711 379.424 44.6963 380.482 43.9639C381.052 43.6383 381.784 43.4756 382.679 43.4756H438.832C439.808 43.4756 440.541 43.6383 441.029 43.9639C442.087 44.6963 443.185 45.5711 444.325 46.5884C445.464 47.6056 446.664 48.8263 447.926 50.2505C448.333 50.7795 448.536 51.2067 448.536 51.5322C448.536 51.8984 448.333 52.3053 447.926 52.7529C446.664 54.1771 445.464 55.3978 444.325 56.415C443.185 57.4323 442.087 58.3071 441.029 59.0396C440.459 59.3651 439.727 59.5278 438.832 59.5278H420.582V127.765ZM456.471 132.526C450.489 132.526 445.729 130.858 442.188 127.521C438.689 124.144 436.939 119.505 436.939 113.605C436.939 110.553 437.489 107.725 438.587 105.121C439.727 102.476 441.68 100.157 444.447 98.1631C447.254 96.1286 451.161 94.501 456.166 93.2803C461.211 92.0596 467.64 91.3475 475.453 91.144C475.453 87.4412 474.517 84.776 472.645 83.1484C470.814 81.5208 468.047 80.707 464.344 80.707C461.008 80.707 458.281 81.2767 456.166 82.416C454.05 83.5553 452.727 84.3285 452.198 84.7354C451.629 85.2236 450.937 85.4067 450.123 85.2847C449.024 85.1219 447.844 84.8371 446.583 84.4302C445.362 84.0233 444.04 83.5553 442.616 83.0264C442.412 82.945 442.188 82.8229 441.944 82.6602C441.7 82.4567 441.558 82.1719 441.517 81.8057C441.517 81.6022 441.537 81.3581 441.578 81.0732C441.619 80.7477 441.721 80.1781 441.883 79.3643C442.046 78.5505 442.29 77.5535 442.616 76.3735C442.941 75.1528 443.246 74.217 443.531 73.5659C443.897 72.8742 444.508 72.2231 445.362 71.6128C446.054 71.0431 448.15 70.1276 451.649 68.8662C455.148 67.6048 460.214 66.9741 466.847 66.9741C485.117 66.9741 494.251 75.8649 494.251 93.6465V128.192C494.251 128.965 494.028 129.637 493.58 130.207C493.173 130.736 492.461 131 491.444 131H482.289C481.638 131 481.048 130.919 480.519 130.756C480.03 130.552 479.562 130.186 479.115 129.657L475.331 124.774H474.903C473.032 127.501 470.509 129.474 467.335 130.695C464.202 131.916 460.58 132.526 456.471 132.526ZM463.185 118.366C466.928 118.366 469.756 117.41 471.668 115.497C473.581 113.585 474.802 111.611 475.331 109.577V102.802C469.675 102.802 465.423 103.249 462.574 104.145C459.767 104.999 457.895 106.138 456.959 107.562C456.023 108.946 455.555 110.451 455.555 112.079C455.555 114.439 456.288 116.087 457.752 117.023C459.217 117.918 461.028 118.366 463.185 118.366ZM529.408 127.765C529.408 128.986 529.143 129.84 528.614 130.329C528.126 130.776 527.271 131 526.051 131H513.478C512.257 131 511.382 130.776 510.853 130.329C510.365 129.84 510.121 128.986 510.121 127.765V45.1846C510.121 44.208 510.324 43.4552 510.731 42.9263C512.44 40.6883 514.942 38.2673 518.238 35.6631C518.808 35.2562 519.317 35.0527 519.764 35.0527C520.293 35.0527 520.802 35.2562 521.29 35.6631C523.04 37.0059 524.505 38.2673 525.685 39.4473C526.905 40.6273 527.943 41.7869 528.797 42.9263C529.204 43.4552 529.408 44.208 529.408 45.1846V93.0972H530.14C536.325 93.0972 540.516 91.9985 542.713 89.8013C544.951 87.5633 546.07 84.4709 546.07 80.5239V77.228C546.07 76.2515 546.274 75.4987 546.681 74.9697C548.39 72.7318 550.892 70.3107 554.188 67.7065C554.758 67.2996 555.266 67.0962 555.714 67.0962C556.243 67.0962 556.751 67.2996 557.24 67.7065C558.989 69.0493 560.454 70.3107 561.634 71.4907C562.855 72.6707 563.893 73.8304 564.747 74.9697C565.154 75.4987 565.357 76.2515 565.357 77.228V80.5239C565.357 82.8433 564.889 85.4067 563.954 88.2144C563.058 91.022 561.41 93.5041 559.01 95.6606C556.609 97.8172 553.191 99.0786 548.756 99.4448V99.75C552.174 101.256 555.124 103.249 557.606 105.731C560.088 108.214 562.163 110.879 563.832 113.727C565.5 116.535 566.782 119.241 567.677 121.845C568.613 124.408 569.223 126.585 569.508 128.375C569.793 130.125 569.203 131 567.738 131H551.686C550.302 131 549.509 130.166 549.305 128.498C549.02 126.585 548.39 124.347 547.413 121.784C546.477 119.18 545.195 116.636 543.568 114.154C541.981 111.672 540.048 109.617 537.77 107.99C535.532 106.321 532.988 105.487 530.14 105.487H529.408V127.765ZM601.49 132.526C587.005 132.526 579.762 123.757 579.762 106.22L579.701 75.2139C579.701 74.2373 579.904 73.4845 580.311 72.9556C582.02 70.7176 584.522 68.2965 587.818 65.6924C588.388 65.2855 588.897 65.082 589.344 65.082C589.873 65.082 590.382 65.2855 590.87 65.6924C592.62 67.0352 594.085 68.2965 595.265 69.4766C596.485 70.6566 597.523 71.8162 598.377 72.9556C598.784 73.4845 598.988 74.2373 598.988 75.2139V104.511C598.988 113.34 602.487 117.755 609.486 117.755C612.944 117.755 615.711 116.555 617.787 114.154C619.862 111.713 620.899 108.417 620.899 104.267V75.2139C620.899 74.2373 621.103 73.4845 621.51 72.9556C623.219 70.7176 625.721 68.2965 629.017 65.6924C629.587 65.2855 630.095 65.082 630.543 65.082C631.072 65.082 631.581 65.2855 632.069 65.6924C633.819 67.0352 635.283 68.2965 636.463 69.4766C637.684 70.6566 638.722 71.8162 639.576 72.9556C639.983 73.4845 640.187 74.2373 640.187 75.2139V128.192C640.187 128.965 639.922 129.637 639.393 130.207C638.864 130.736 638.193 131 637.379 131H628.224C627.573 131 626.983 130.919 626.454 130.756C625.965 130.552 625.497 130.186 625.05 129.657L621.266 124.774H620.838C620.187 125.71 619.17 126.789 617.787 128.009C616.444 129.23 614.47 130.288 611.866 131.183C609.303 132.078 605.844 132.526 601.49 132.526ZM712.635 74.9087C714.141 73.0776 716.46 71.3076 719.593 69.5986C722.767 67.849 727.223 66.9741 732.96 66.9741C741.098 66.9741 746.978 69.0697 750.599 73.2607C754.221 77.4518 756.031 83.7384 756.031 92.1206V127.765C756.031 128.986 755.767 129.84 755.238 130.329C754.75 130.776 753.895 131 752.674 131H740.101C738.88 131 738.006 130.776 737.477 130.329C736.988 129.84 736.744 128.986 736.744 127.765V95.2944C736.744 90.7371 735.91 87.4819 734.242 85.5288C732.573 83.535 730.071 82.5381 726.734 82.5381C723.764 82.5381 721.404 83.2095 719.654 84.5522C717.945 85.8543 716.725 87.6243 715.992 89.8623V127.765C715.992 128.986 715.728 129.84 715.199 130.329C714.71 130.776 713.856 131 712.635 131H700.062C698.841 131 697.966 130.776 697.438 130.329C696.949 129.84 696.705 128.986 696.705 127.765V95.2944C696.705 90.8592 695.79 87.6243 693.958 85.5898C692.127 83.5553 689.727 82.5381 686.756 82.5381C683.949 82.5381 681.69 83.2298 679.981 84.6133C678.272 85.9967 676.95 87.7464 676.014 89.8623V127.765C676.014 128.986 675.75 129.84 675.221 130.329C674.732 130.776 673.878 131 672.657 131H660.084C658.863 131 657.988 130.776 657.459 130.329C656.971 129.84 656.727 128.986 656.727 127.765V76.6177C656.727 75.6411 656.931 74.8883 657.337 74.3594C658.192 73.2201 659.209 72.0604 660.389 70.8804C661.61 69.7004 663.095 68.439 664.845 67.0962C665.374 66.6893 665.882 66.4858 666.371 66.4858C666.818 66.4858 667.327 66.6893 667.896 67.0962C669.605 68.439 671.07 69.7207 672.291 70.9414C673.512 72.1621 674.59 73.4235 675.526 74.7256H675.831C677.215 72.9759 679.371 71.2466 682.301 69.5376C685.23 67.8286 689.422 66.9741 694.874 66.9741C700.082 66.9741 703.948 67.7676 706.471 69.3545C708.993 70.9007 711.048 72.7521 712.635 74.9087ZM769.764 47.9922C769.764 47.4632 769.927 46.9953 770.252 46.5884C770.578 46.1815 771.005 45.6525 771.534 45.0015C772.674 43.6994 773.996 42.3363 775.501 40.9121C777.007 39.4473 778.533 38.0435 780.079 36.7007C781.056 35.9276 781.788 35.541 782.276 35.541C782.765 35.541 783.517 35.9276 784.535 36.7007C787.831 39.549 790.638 42.3159 792.958 45.0015C793.486 45.6118 793.914 46.1408 794.239 46.5884C794.605 46.9953 794.789 47.4632 794.789 47.9922C794.789 48.5212 794.605 48.9891 794.239 49.396C793.914 49.8029 793.466 50.3522 792.896 51.0439C791.798 52.3053 790.516 53.6685 789.051 55.1333C787.586 56.5575 786.081 57.9206 784.535 59.2227C783.965 59.7109 783.517 60.0365 783.192 60.1992C782.866 60.3213 782.561 60.3823 782.276 60.3823C781.992 60.3823 781.686 60.3213 781.361 60.1992C781.076 60.0365 780.608 59.7109 779.957 59.2227C778.329 57.9206 776.804 56.5575 775.379 55.1333C773.955 53.6685 772.674 52.2646 771.534 50.9219C771.005 50.2708 770.578 49.7622 770.252 49.396C769.927 48.9891 769.764 48.5212 769.764 47.9922ZM791.859 127.765C791.859 128.986 791.594 129.84 791.065 130.329C790.577 130.776 789.723 131 788.502 131H775.929C774.708 131 773.833 130.776 773.304 130.329C772.816 129.84 772.572 128.986 772.572 127.765V71.7349C772.572 70.5142 772.816 69.68 773.304 69.2324C773.833 68.7441 774.708 68.5 775.929 68.5H788.502C789.723 68.5 790.577 68.7441 791.065 69.2324C791.594 69.68 791.859 70.5142 791.859 71.7349V127.765ZM847.34 66.9741C853.281 66.9741 858.163 68.3169 861.988 71.0024C865.854 73.6473 868.722 77.3094 870.594 81.9888C872.507 86.6274 873.463 91.9578 873.463 97.98C873.463 104.49 872.344 110.35 870.106 115.558C867.909 120.766 864.653 124.896 860.34 127.948C856.027 131 850.676 132.526 844.288 132.526C840.992 132.526 838.266 132.139 836.109 131.366C833.993 130.634 832.285 129.759 830.982 128.742C829.721 127.684 828.724 126.728 827.992 125.873H827.748V151.874C827.748 152.851 827.544 153.603 827.137 154.132C825.428 156.37 822.926 158.791 819.63 161.396C819.06 161.802 818.552 162.006 818.104 162.006C817.616 162.006 817.107 161.802 816.578 161.396C814.828 160.053 813.343 158.791 812.123 157.611C810.943 156.431 809.925 155.272 809.071 154.132C808.664 153.603 808.46 152.851 808.46 151.874V76.6177C808.46 75.6411 808.664 74.8883 809.071 74.3594C809.925 73.2201 810.943 72.0604 812.123 70.8804C813.343 69.7004 814.828 68.439 816.578 67.0962C817.107 66.6893 817.656 66.4858 818.226 66.4858C818.755 66.4858 819.304 66.6893 819.874 67.0962C821.583 68.439 823.048 69.7207 824.269 70.9414C825.489 72.1621 826.568 73.4235 827.503 74.7256H827.809C828.5 73.8711 829.558 72.8335 830.982 71.6128C832.407 70.3921 834.421 69.3138 837.025 68.3779C839.67 67.4421 843.108 66.9741 847.34 66.9741ZM839.833 116.962C844.227 116.962 847.625 115.436 850.025 112.384C852.467 109.292 853.688 104.836 853.688 99.0176C853.688 88.0312 849.171 82.5381 840.138 82.5381C836.313 82.5381 833.485 83.3315 831.654 84.9185C829.823 86.4647 828.521 88.1126 827.748 89.8623V103.107C827.748 107.054 828.765 110.35 830.799 112.995C832.834 115.639 835.845 116.962 839.833 116.962ZM902.76 132.526C896.778 132.526 892.018 130.858 888.478 127.521C884.978 124.144 883.229 119.505 883.229 113.605C883.229 110.553 883.778 107.725 884.876 105.121C886.016 102.476 887.969 100.157 890.736 98.1631C893.543 96.1286 897.45 94.501 902.455 93.2803C907.5 92.0596 913.929 91.3475 921.742 91.144C921.742 87.4412 920.806 84.776 918.934 83.1484C917.103 81.5208 914.336 80.707 910.633 80.707C907.297 80.707 904.57 81.2767 902.455 82.416C900.339 83.5553 899.016 84.3285 898.487 84.7354C897.918 85.2236 897.226 85.4067 896.412 85.2847C895.313 85.1219 894.133 84.8371 892.872 84.4302C891.651 84.0233 890.329 83.5553 888.905 83.0264C888.701 82.945 888.478 82.8229 888.233 82.6602C887.989 82.4567 887.847 82.1719 887.806 81.8057C887.806 81.6022 887.826 81.3581 887.867 81.0732C887.908 80.7477 888.01 80.1781 888.172 79.3643C888.335 78.5505 888.579 77.5535 888.905 76.3735C889.23 75.1528 889.535 74.217 889.82 73.5659C890.187 72.8742 890.797 72.2231 891.651 71.6128C892.343 71.0431 894.439 70.1276 897.938 68.8662C901.437 67.6048 906.503 66.9741 913.136 66.9741C931.406 66.9741 940.541 75.8649 940.541 93.6465V128.192C940.541 128.965 940.317 129.637 939.869 130.207C939.462 130.736 938.75 131 937.733 131H928.578C927.927 131 927.337 130.919 926.808 130.756C926.319 130.552 925.851 130.186 925.404 129.657L921.62 124.774H921.192C919.321 127.501 916.798 129.474 913.624 130.695C910.491 131.916 906.869 132.526 902.76 132.526ZM909.474 118.366C913.217 118.366 916.045 117.41 917.958 115.497C919.87 113.585 921.091 111.611 921.62 109.577V102.802C915.964 102.802 911.712 103.249 908.863 104.145C906.056 104.999 904.184 106.138 903.248 107.562C902.312 108.946 901.844 110.451 901.844 112.079C901.844 114.439 902.577 116.087 904.042 117.023C905.506 117.918 907.317 118.366 909.474 118.366ZM958.973 160.358C957.468 160.358 956.328 160.195 955.555 159.87C954.782 159.585 954.131 159.219 953.602 158.771C952.544 157.754 951.405 156.33 950.184 154.499C949.899 154.051 949.594 153.522 949.269 152.912C948.943 152.342 948.78 151.854 948.78 151.447C948.78 150.999 948.882 150.592 949.085 150.226C949.289 149.86 949.533 149.514 949.818 149.188C950.469 148.334 951.262 147.439 952.198 146.503C953.134 145.608 953.928 144.896 954.579 144.367C955.026 144 955.392 143.756 955.677 143.634C955.962 143.553 956.206 143.512 956.41 143.512C956.613 143.512 956.918 143.553 957.325 143.634C957.732 143.716 958.342 143.756 959.156 143.756C961.964 143.756 964.894 142.841 967.945 141.01C970.997 139.179 974.008 135.74 976.979 130.695C973.886 127.847 970.834 124.286 967.823 120.014C964.853 115.701 962.167 111.042 959.767 106.037C957.366 100.991 955.433 95.9658 953.968 90.9609C952.544 85.9561 951.832 81.3377 951.832 77.106C951.832 76.2108 952.056 75.4987 952.503 74.9697C954.375 72.6504 957.04 70.2293 960.499 67.7065C961.109 67.2996 961.659 67.0962 962.147 67.0962C962.676 67.0962 963.225 67.2996 963.795 67.7065C965.667 69.0493 967.233 70.3107 968.495 71.4907C969.797 72.6707 970.895 73.8304 971.791 74.9697C972.238 75.4987 972.462 76.2515 972.462 77.228V76.9839C972.462 80.1984 972.848 83.596 973.622 87.1768C974.395 90.7575 975.453 94.2568 976.795 97.6748C978.138 101.052 979.644 104.124 981.312 106.891C982.98 109.617 984.71 111.794 986.5 113.422H986.805C987.619 111.876 988.514 109.658 989.491 106.769C990.508 103.839 991.464 100.604 992.359 97.0645C993.255 93.4837 993.987 89.9437 994.557 86.4443C995.126 82.9043 995.411 79.7712 995.411 77.0449V77.228C995.411 76.2515 995.615 75.4987 996.021 74.9697C996.957 73.8304 998.056 72.6707 999.317 71.4907C1000.58 70.3107 1002.1 69.0493 1003.9 67.7065C1004.46 67.2996 1004.99 67.0962 1005.48 67.0962C1006.05 67.0962 1006.58 67.2996 1007.07 67.7065C1008.9 69.0493 1010.45 70.3107 1011.71 71.4907C1012.97 72.6707 1014.05 73.8304 1014.94 74.9697C1015.35 75.4987 1015.55 76.2311 1015.55 77.167C1015.51 80.8698 1014.8 85.7119 1013.42 91.6934C1012.03 97.6341 1010.02 104.083 1007.37 111.042C1004.73 118 1001.51 124.815 997.73 131.488C992.075 141.539 985.971 148.863 979.42 153.461C972.869 158.059 966.053 160.358 958.973 160.358ZM1015.55 77.0449V77.228V77.167C1015.55 77.1263 1015.55 77.0856 1015.55 77.0449ZM951.832 77.0449V77.106V77.228V77.0449ZM1063.77 104.999C1062.51 104.999 1061.88 104.368 1061.88 103.107V92.1816C1061.88 90.9202 1062.51 90.2896 1063.77 90.2896H1093.37C1094.63 90.2896 1095.26 90.9202 1095.26 92.1816V103.107C1095.26 104.368 1094.63 104.999 1093.37 104.999H1063.77ZM1187.43 127.765C1187.43 128.986 1187.16 129.84 1186.63 130.329C1186.15 130.776 1185.29 131 1184.07 131H1171.07C1169.85 131 1168.97 130.776 1168.45 130.329C1167.96 129.84 1167.71 128.986 1167.71 127.765V100.238L1155.57 86.1392C1152.68 82.7619 1150.24 79.7305 1148.24 77.0449C1146.29 74.3594 1144.83 71.5924 1143.85 68.7441C1142.87 65.8551 1142.38 62.4779 1142.38 58.6123V53.2412C1142.38 52.0612 1142.59 51.166 1142.99 50.5557C1144.83 47.8701 1147.39 45.0422 1150.68 42.0718C1151.29 41.5835 1151.84 41.3394 1152.33 41.3394C1152.82 41.3394 1153.33 41.5835 1153.86 42.0718C1155.65 43.618 1157.15 45.1032 1158.38 46.5273C1159.6 47.9108 1160.65 49.2536 1161.55 50.5557C1161.96 51.2067 1162.16 52.1019 1162.16 53.2412V58.5513C1162.16 61.1961 1162.93 64.1258 1164.48 67.3403C1166.02 70.5549 1168.63 74.0949 1172.29 77.9604L1178.21 84.186L1184.01 77.9604C1187.31 74.4204 1189.81 71.0431 1191.52 67.8286C1193.27 64.6141 1194.14 61.542 1194.14 58.6123V53.2412C1194.14 52.0612 1194.35 51.166 1194.75 50.5557C1196.5 47.9108 1198.98 45.0828 1202.2 42.0718C1202.81 41.5835 1203.32 41.3394 1203.72 41.3394C1204.21 41.3394 1204.72 41.5835 1205.25 42.0718C1206.96 43.618 1208.4 45.1032 1209.58 46.5273C1210.8 47.9108 1211.84 49.2536 1212.7 50.5557C1213.1 51.2067 1213.31 52.1019 1213.31 53.2412V58.6123C1213.31 63.0882 1212.33 67.381 1210.38 71.4907C1208.42 75.5597 1205.11 80.1984 1200.43 85.4067L1187.43 99.8721V127.765ZM1247.24 132.526C1236.99 132.526 1228.87 129.8 1222.89 124.347C1216.91 118.895 1213.92 110.777 1213.92 99.9941C1213.92 88.9264 1217.01 80.6663 1223.19 75.2139C1229.42 69.7207 1237.72 66.9741 1248.1 66.9741C1258.11 66.9741 1266.12 69.68 1272.14 75.0918C1278.17 80.4629 1281.18 88.3975 1281.18 98.8955C1281.18 109.841 1278.17 118.183 1272.14 123.92C1266.12 129.657 1257.82 132.526 1247.24 132.526ZM1247.85 117.755C1252.33 117.755 1255.71 116.372 1257.98 113.605C1260.26 110.797 1261.4 106.016 1261.4 99.2617C1261.4 92.8327 1260.24 88.3161 1257.92 85.7119C1255.64 83.0671 1252.25 81.7446 1247.73 81.7446C1243.38 81.7446 1239.94 83.1688 1237.42 86.0171C1234.93 88.8247 1233.69 93.4023 1233.69 99.75C1233.69 106.382 1234.87 111.042 1237.23 113.727C1239.63 116.413 1243.17 117.755 1247.85 117.755ZM1316.09 132.526C1301.6 132.526 1294.36 123.757 1294.36 106.22L1294.3 75.2139C1294.3 74.2373 1294.5 73.4845 1294.91 72.9556C1296.62 70.7176 1299.12 68.2965 1302.42 65.6924C1302.99 65.2855 1303.5 65.082 1303.94 65.082C1304.47 65.082 1304.98 65.2855 1305.47 65.6924C1307.22 67.0352 1308.68 68.2965 1309.86 69.4766C1311.08 70.6566 1312.12 71.8162 1312.98 72.9556C1313.38 73.4845 1313.59 74.2373 1313.59 75.2139V104.511C1313.59 113.34 1317.09 117.755 1324.09 117.755C1327.54 117.755 1330.31 116.555 1332.39 114.154C1334.46 111.713 1335.5 108.417 1335.5 104.267V75.2139C1335.5 74.2373 1335.7 73.4845 1336.11 72.9556C1337.82 70.7176 1340.32 68.2965 1343.62 65.6924C1344.19 65.2855 1344.69 65.082 1345.14 65.082C1345.67 65.082 1346.18 65.2855 1346.67 65.6924C1348.42 67.0352 1349.88 68.2965 1351.06 69.4766C1352.28 70.6566 1353.32 71.8162 1354.18 72.9556C1354.58 73.4845 1354.79 74.2373 1354.79 75.2139V128.192C1354.79 128.965 1354.52 129.637 1353.99 130.207C1353.46 130.736 1352.79 131 1351.98 131H1342.82C1342.17 131 1341.58 130.919 1341.05 130.756C1340.56 130.552 1340.1 130.186 1339.65 129.657L1335.87 124.774H1335.44C1334.79 125.71 1333.77 126.789 1332.39 128.009C1331.04 129.23 1329.07 130.288 1326.47 131.183C1323.9 132.078 1320.44 132.526 1316.09 132.526ZM1390.61 80.0967H1390.86C1393.91 71.6331 1399.4 67.4014 1407.34 67.4014C1408.35 67.4014 1409.19 67.4624 1409.84 67.5845C1410.49 67.6659 1410.94 67.7472 1411.18 67.8286C1411.79 68.0321 1412.1 68.5 1412.1 69.2324V83.9419C1412.1 85.2033 1411.37 85.5492 1409.9 84.9795C1409.41 84.776 1408.7 84.5726 1407.76 84.3691C1406.87 84.125 1405.61 84.0029 1403.98 84.0029C1399.79 84.0029 1396.51 85.5492 1394.15 88.6416C1391.79 91.6934 1390.61 95.8641 1390.61 101.154V127.765C1390.61 128.986 1390.35 129.84 1389.82 130.329C1389.33 130.776 1388.48 131 1387.26 131H1374.68C1373.46 131 1372.59 130.776 1372.06 130.329C1371.57 129.84 1371.33 128.986 1371.33 127.765V76.6177C1371.33 75.6411 1371.53 74.8883 1371.94 74.3594C1372.79 73.2201 1373.81 72.0604 1374.99 70.8804C1376.21 69.7004 1377.69 68.439 1379.44 67.0962C1379.77 66.8521 1380.1 66.6893 1380.42 66.6079C1380.75 66.5265 1381.03 66.4858 1381.28 66.4858C1381.85 66.4858 1382.41 66.6893 1382.98 67.0962C1386.36 69.741 1388.72 71.9993 1390.06 73.8711C1390.43 74.3594 1390.61 74.929 1390.61 75.5801V80.0967ZM1477.04 67.0962V81.0122H1498.71C1499.68 81.0122 1500.42 81.175 1500.9 81.5005C1501.96 82.2329 1503.06 83.1077 1504.2 84.125C1505.34 85.1423 1506.54 86.363 1507.8 87.7871C1508.21 88.3161 1508.41 88.7433 1508.41 89.0688C1508.41 89.4351 1508.21 89.842 1507.8 90.2896C1506.54 91.7137 1505.34 92.9344 1504.2 93.9517C1503.06 94.9689 1501.96 95.8438 1500.9 96.5762C1500.33 96.9017 1499.6 97.0645 1498.71 97.0645H1477.04V127.765C1477.04 128.986 1476.78 129.84 1476.25 130.329C1475.76 130.776 1474.9 131 1473.68 131H1460.68C1459.46 131 1458.59 130.776 1458.06 130.329C1457.57 129.84 1457.33 128.986 1457.33 127.765V59.833C1457.33 55.764 1457.69 52.5495 1458.42 50.1895C1459.2 47.7887 1460.66 46.0798 1462.82 45.0625C1465.02 44.0046 1468.21 43.4756 1472.4 43.4756H1501.21C1502.19 43.4756 1502.92 43.6383 1503.41 43.9639C1504.46 44.6963 1505.56 45.5711 1506.7 46.5884C1507.84 47.6056 1509.04 48.8263 1510.3 50.2505C1510.71 50.7795 1510.91 51.2067 1510.91 51.5322C1510.91 51.8984 1510.71 52.3053 1510.3 52.7529C1509.04 54.1771 1507.84 55.3978 1506.7 56.415C1505.56 57.4323 1504.46 58.3071 1503.41 59.0396C1502.84 59.3651 1502.1 59.5278 1501.21 59.5278H1484C1481.31 59.5278 1479.48 60.0975 1478.5 61.2368C1477.53 62.3761 1477.04 64.3293 1477.04 67.0962ZM1517.93 47.9922C1517.93 47.4632 1518.1 46.9953 1518.42 46.5884C1518.75 46.1815 1519.17 45.6525 1519.7 45.0015C1520.84 43.6994 1522.16 42.3363 1523.67 40.9121C1525.18 39.4473 1526.7 38.0435 1528.25 36.7007C1529.22 35.9276 1529.96 35.541 1530.45 35.541C1530.93 35.541 1531.69 35.9276 1532.7 36.7007C1536 39.549 1538.81 42.3159 1541.13 45.0015C1541.66 45.6118 1542.08 46.1408 1542.41 46.5884C1542.77 46.9953 1542.96 47.4632 1542.96 47.9922C1542.96 48.5212 1542.77 48.9891 1542.41 49.396C1542.08 49.8029 1541.64 50.3522 1541.07 51.0439C1539.97 52.3053 1538.69 53.6685 1537.22 55.1333C1535.76 56.5575 1534.25 57.9206 1532.7 59.2227C1532.13 59.7109 1531.69 60.0365 1531.36 60.1992C1531.04 60.3213 1530.73 60.3823 1530.45 60.3823C1530.16 60.3823 1529.86 60.3213 1529.53 60.1992C1529.24 60.0365 1528.78 59.7109 1528.13 59.2227C1526.5 57.9206 1524.97 56.5575 1523.55 55.1333C1522.12 53.6685 1520.84 52.2646 1519.7 50.9219C1519.17 50.2708 1518.75 49.7622 1518.42 49.396C1518.1 48.9891 1517.93 48.5212 1517.93 47.9922ZM1540.03 127.765C1540.03 128.986 1539.76 129.84 1539.23 130.329C1538.75 130.776 1537.89 131 1536.67 131H1524.1C1522.88 131 1522 130.776 1521.47 130.329C1520.98 129.84 1520.74 128.986 1520.74 127.765V71.7349C1520.74 70.5142 1520.98 69.68 1521.47 69.2324C1522 68.7441 1522.88 68.5 1524.1 68.5H1536.67C1537.89 68.5 1538.75 68.7441 1539.23 69.2324C1539.76 69.68 1540.03 70.5142 1540.03 71.7349V127.765ZM1617.05 92.1206V127.765C1617.05 128.986 1616.79 129.84 1616.26 130.329C1615.77 130.776 1614.92 131 1613.7 131H1601.12C1599.9 131 1599.03 130.776 1598.5 130.329C1598.01 129.84 1597.77 128.986 1597.77 127.765V95.2944C1597.77 90.8592 1596.83 87.6243 1594.96 85.5898C1593.09 83.5553 1590.54 82.5381 1587.33 82.5381C1584.12 82.5381 1581.63 83.2298 1579.88 84.6133C1578.17 85.9967 1576.85 87.7464 1575.92 89.8623V127.765C1575.92 128.986 1575.65 129.84 1575.12 130.329C1574.63 130.776 1573.78 131 1572.56 131H1559.99C1558.77 131 1557.89 130.776 1557.36 130.329C1556.87 129.84 1556.63 128.986 1556.63 127.765V76.6177C1556.63 75.6411 1556.83 74.8883 1557.24 74.3594C1558.09 73.2201 1559.11 72.0604 1560.29 70.8804C1561.51 69.7004 1563 68.439 1564.75 67.0962C1565.28 66.6893 1565.78 66.4858 1566.27 66.4858C1566.72 66.4858 1567.23 66.6893 1567.8 67.0962C1569.51 68.439 1570.97 69.7207 1572.19 70.9414C1573.41 72.1621 1574.49 73.4235 1575.43 74.7256H1575.73C1576.43 73.8304 1577.46 72.7928 1578.85 71.6128C1580.23 70.3921 1582.16 69.3138 1584.64 68.3779C1587.17 67.4421 1590.38 66.9741 1594.29 66.9741C1598.11 66.9741 1601.75 67.7472 1605.21 69.2935C1608.67 70.8397 1611.5 73.4438 1613.7 77.106C1615.94 80.7681 1617.05 85.7729 1617.05 92.1206ZM1649.71 132.526C1643.73 132.526 1638.97 130.858 1635.43 127.521C1631.93 124.144 1630.18 119.505 1630.18 113.605C1630.18 110.553 1630.73 107.725 1631.82 105.121C1632.96 102.476 1634.92 100.157 1637.68 98.1631C1640.49 96.1286 1644.4 94.501 1649.4 93.2803C1654.45 92.0596 1660.88 91.3475 1668.69 91.144C1668.69 87.4412 1667.75 84.776 1665.88 83.1484C1664.05 81.5208 1661.28 80.707 1657.58 80.707C1654.24 80.707 1651.52 81.2767 1649.4 82.416C1647.29 83.5553 1645.96 84.3285 1645.44 84.7354C1644.87 85.2236 1644.17 85.4067 1643.36 85.2847C1642.26 85.1219 1641.08 84.8371 1639.82 84.4302C1638.6 84.0233 1637.28 83.5553 1635.85 83.0264C1635.65 82.945 1635.43 82.8229 1635.18 82.6602C1634.94 82.4567 1634.8 82.1719 1634.75 81.8057C1634.75 81.6022 1634.77 81.3581 1634.82 81.0732C1634.86 80.7477 1634.96 80.1781 1635.12 79.3643C1635.28 78.5505 1635.53 77.5535 1635.85 76.3735C1636.18 75.1528 1636.48 74.217 1636.77 73.5659C1637.13 72.8742 1637.75 72.2231 1638.6 71.6128C1639.29 71.0431 1641.39 70.1276 1644.89 68.8662C1648.39 67.6048 1653.45 66.9741 1660.08 66.9741C1678.35 66.9741 1687.49 75.8649 1687.49 93.6465V128.192C1687.49 128.965 1687.26 129.637 1686.82 130.207C1686.41 130.736 1685.7 131 1684.68 131H1675.53C1674.87 131 1674.28 130.919 1673.76 130.756C1673.27 130.552 1672.8 130.186 1672.35 129.657L1668.57 124.774H1668.14C1666.27 127.501 1663.75 129.474 1660.57 130.695C1657.44 131.916 1653.82 132.526 1649.71 132.526ZM1656.42 118.366C1660.17 118.366 1662.99 117.41 1664.91 115.497C1666.82 113.585 1668.04 111.611 1668.57 109.577V102.802C1662.91 102.802 1658.66 103.249 1655.81 104.145C1653 104.999 1651.13 106.138 1650.2 107.562C1649.26 108.946 1648.79 110.451 1648.79 112.079C1648.79 114.439 1649.52 116.087 1650.99 117.023C1652.45 117.918 1654.27 118.366 1656.42 118.366ZM1763.78 92.1206V127.765C1763.78 128.986 1763.52 129.84 1762.99 130.329C1762.5 130.776 1761.65 131 1760.43 131H1747.85C1746.63 131 1745.76 130.776 1745.23 130.329C1744.74 129.84 1744.5 128.986 1744.5 127.765V95.2944C1744.5 90.8592 1743.56 87.6243 1741.69 85.5898C1739.82 83.5553 1737.27 82.5381 1734.06 82.5381C1730.84 82.5381 1728.36 83.2298 1726.61 84.6133C1724.9 85.9967 1723.58 87.7464 1722.65 89.8623V127.765C1722.65 128.986 1722.38 129.84 1721.85 130.329C1721.36 130.776 1720.51 131 1719.29 131H1706.71C1705.49 131 1704.62 130.776 1704.09 130.329C1703.6 129.84 1703.36 128.986 1703.36 127.765V76.6177C1703.36 75.6411 1703.56 74.8883 1703.97 74.3594C1704.82 73.2201 1705.84 72.0604 1707.02 70.8804C1708.24 69.7004 1709.73 68.439 1711.48 67.0962C1712 66.6893 1712.51 66.4858 1713 66.4858C1713.45 66.4858 1713.96 66.6893 1714.53 67.0962C1716.24 68.439 1717.7 69.7207 1718.92 70.9414C1720.14 72.1621 1721.22 73.4235 1722.16 74.7256H1722.46C1723.15 73.8304 1724.19 72.7928 1725.57 71.6128C1726.96 70.3921 1728.89 69.3138 1731.37 68.3779C1733.9 67.4421 1737.11 66.9741 1741.02 66.9741C1744.84 66.9741 1748.48 67.7472 1751.94 69.2935C1755.4 70.8397 1758.23 73.4438 1760.43 77.106C1762.66 80.7681 1763.78 85.7729 1763.78 92.1206ZM1811.39 66.9741C1816.23 66.9741 1819.75 67.381 1821.95 68.1948C1824.15 68.9679 1825.53 69.5783 1826.1 70.0259C1826.99 70.5955 1827.69 71.328 1828.17 72.2231C1828.46 72.6707 1828.79 73.4438 1829.15 74.5425C1829.52 75.6411 1829.78 76.8415 1829.94 78.1436C1830.15 79.1608 1830.17 79.8932 1830.01 80.3408C1829.84 80.7477 1829.33 81.2563 1828.48 81.8667C1827.5 82.5177 1826.43 83.1077 1825.25 83.6367C1824.11 84.125 1823.17 84.4709 1822.44 84.6743C1821.83 84.8371 1821.36 84.8778 1821.03 84.7964C1820.71 84.715 1820.26 84.4709 1819.69 84.064C1819.04 83.6164 1818.12 83.1281 1816.94 82.5991C1815.76 82.0295 1814.14 81.7446 1812.06 81.7446C1809.42 81.7446 1806.89 82.3957 1804.49 83.6978C1802.13 84.9998 1800.2 86.953 1798.69 89.5571C1797.23 92.1613 1796.5 95.4165 1796.5 99.3228C1796.5 105.182 1798.02 109.719 1801.08 112.934C1804.17 116.148 1808.3 117.755 1813.47 117.755C1816.11 117.755 1818.31 117.491 1820.06 116.962C1821.81 116.392 1823.19 115.823 1824.21 115.253C1825.02 114.805 1825.63 114.704 1826.04 114.948C1826.49 115.151 1826.83 115.538 1827.08 116.107L1831.53 126.178C1831.98 127.236 1831.74 127.989 1830.8 128.437C1829.29 129.21 1826.81 130.084 1823.35 131.061C1819.89 132.038 1815.62 132.526 1810.54 132.526C1800.32 132.526 1792.16 129.82 1786.06 124.408C1779.96 118.956 1776.91 110.818 1776.91 99.9941C1776.91 93.0768 1778.31 87.1564 1781.12 82.2329C1783.92 77.3094 1787.91 73.5456 1793.08 70.9414C1798.25 68.2965 1804.35 66.9741 1811.39 66.9741ZM1838.73 47.9922C1838.73 47.4632 1838.9 46.9953 1839.22 46.5884C1839.55 46.1815 1839.97 45.6525 1840.5 45.0015C1841.64 43.6994 1842.97 42.3363 1844.47 40.9121C1845.98 39.4473 1847.5 38.0435 1849.05 36.7007C1850.03 35.9276 1850.76 35.541 1851.25 35.541C1851.73 35.541 1852.49 35.9276 1853.5 36.7007C1856.8 39.549 1859.61 42.3159 1861.93 45.0015C1862.46 45.6118 1862.88 46.1408 1863.21 46.5884C1863.58 46.9953 1863.76 47.4632 1863.76 47.9922C1863.76 48.5212 1863.58 48.9891 1863.21 49.396C1862.88 49.8029 1862.44 50.3522 1861.87 51.0439C1860.77 52.3053 1859.49 53.6685 1858.02 55.1333C1856.56 56.5575 1855.05 57.9206 1853.5 59.2227C1852.93 59.7109 1852.49 60.0365 1852.16 60.1992C1851.84 60.3213 1851.53 60.3823 1851.25 60.3823C1850.96 60.3823 1850.66 60.3213 1850.33 60.1992C1850.05 60.0365 1849.58 59.7109 1848.93 59.2227C1847.3 57.9206 1845.77 56.5575 1844.35 55.1333C1842.92 53.6685 1841.64 52.2646 1840.5 50.9219C1839.97 50.2708 1839.55 49.7622 1839.22 49.396C1838.9 48.9891 1838.73 48.5212 1838.73 47.9922ZM1860.83 127.765C1860.83 128.986 1860.56 129.84 1860.04 130.329C1859.55 130.776 1858.69 131 1857.47 131H1844.9C1843.68 131 1842.8 130.776 1842.27 130.329C1841.79 129.84 1841.54 128.986 1841.54 127.765V71.7349C1841.54 70.5142 1841.79 69.68 1842.27 69.2324C1842.8 68.7441 1843.68 68.5 1844.9 68.5H1857.47C1858.69 68.5 1859.55 68.7441 1860.04 69.2324C1860.56 69.68 1860.83 70.5142 1860.83 71.7349V127.765ZM1893.6 132.526C1887.62 132.526 1882.86 130.858 1879.32 127.521C1875.82 124.144 1874.07 119.505 1874.07 113.605C1874.07 110.553 1874.62 107.725 1875.72 105.121C1876.86 102.476 1878.81 100.157 1881.58 98.1631C1884.39 96.1286 1888.29 94.501 1893.3 93.2803C1898.34 92.0596 1904.77 91.3475 1912.59 91.144C1912.59 87.4412 1911.65 84.776 1909.78 83.1484C1907.95 81.5208 1905.18 80.707 1901.48 80.707C1898.14 80.707 1895.42 81.2767 1893.3 82.416C1891.18 83.5553 1889.86 84.3285 1889.33 84.7354C1888.76 85.2236 1888.07 85.4067 1887.26 85.2847C1886.16 85.1219 1884.98 84.8371 1883.72 84.4302C1882.5 84.0233 1881.17 83.5553 1879.75 83.0264C1879.55 82.945 1879.32 82.8229 1879.08 82.6602C1878.83 82.4567 1878.69 82.1719 1878.65 81.8057C1878.65 81.6022 1878.67 81.3581 1878.71 81.0732C1878.75 80.7477 1878.85 80.1781 1879.02 79.3643C1879.18 78.5505 1879.42 77.5535 1879.75 76.3735C1880.08 75.1528 1880.38 74.217 1880.67 73.5659C1881.03 72.8742 1881.64 72.2231 1882.5 71.6128C1883.19 71.0431 1885.28 70.1276 1888.78 68.8662C1892.28 67.6048 1897.35 66.9741 1903.98 66.9741C1922.25 66.9741 1931.39 75.8649 1931.39 93.6465V128.192C1931.39 128.965 1931.16 129.637 1930.71 130.207C1930.31 130.736 1929.59 131 1928.58 131H1919.42C1918.77 131 1918.18 130.919 1917.65 130.756C1917.16 130.552 1916.7 130.186 1916.25 129.657L1912.46 124.774H1912.04C1910.17 127.501 1907.64 129.474 1904.47 130.695C1901.34 131.916 1897.71 132.526 1893.6 132.526ZM1900.32 118.366C1904.06 118.366 1906.89 117.41 1908.8 115.497C1910.71 113.585 1911.94 111.611 1912.46 109.577V102.802C1906.81 102.802 1902.56 103.249 1899.71 104.145C1896.9 104.999 1895.03 106.138 1894.09 107.562C1893.16 108.946 1892.69 110.451 1892.69 112.079C1892.69 114.439 1893.42 116.087 1894.89 117.023C1896.35 117.918 1898.16 118.366 1900.32 118.366ZM1955.25 132.282C1954.4 132.648 1953.79 132.831 1953.42 132.831C1953.05 132.831 1952.67 132.689 1952.26 132.404C1951.32 131.753 1950.25 130.166 1949.02 127.643C1947.84 125.08 1947.25 121.153 1947.25 115.863V45.1846C1947.25 44.208 1947.46 43.4552 1947.86 42.9263C1949.57 40.6883 1952.08 38.2673 1955.37 35.6631C1955.94 35.2562 1956.45 35.0527 1956.9 35.0527C1957.43 35.0527 1957.94 35.2562 1958.42 35.6631C1960.17 37.0059 1961.64 38.2673 1962.82 39.4473C1964.04 40.6273 1965.08 41.7869 1965.93 42.9263C1966.34 43.4552 1966.54 44.208 1966.54 45.1846V112.14C1966.54 114.826 1966.77 117.125 1967.21 119.037C1967.66 120.909 1968.19 122.414 1968.8 123.554C1969.49 124.896 1969.23 125.853 1968.01 126.422L1955.25 132.282ZM1030.99 211.297C1033.23 214.431 1035.51 218.479 1037.83 223.443C1040.19 228.367 1042.47 233.779 1044.67 239.679C1046.86 245.579 1048.84 251.621 1050.59 257.806C1052.38 263.95 1053.84 269.871 1054.98 275.567C1056.12 281.264 1056.77 286.33 1056.93 290.765C1056.98 292.922 1056 294 1054 294H1039.23C1037.32 294 1036.33 293.044 1036.24 291.131C1036.08 286.574 1035.35 281.04 1034.05 274.53H1000.72C999.582 280.877 998.931 286.411 998.768 291.131C998.687 293.044 997.649 294 995.655 294H981.19C980.458 294 979.847 293.797 979.359 293.39C978.871 292.942 978.647 292.189 978.688 291.131C978.891 286.615 979.542 281.488 980.641 275.75C981.78 269.972 983.245 263.991 985.035 257.806C986.826 251.621 988.819 245.579 991.017 239.679C993.214 233.738 995.493 228.306 997.853 223.382C1000.21 218.459 1002.51 214.431 1004.75 211.297C1005.93 209.629 1007.17 208.408 1008.47 207.635C1009.82 206.862 1011.46 206.476 1013.42 206.476H1022.21C1024.2 206.476 1025.87 206.862 1027.21 207.635C1028.55 208.408 1029.81 209.629 1030.99 211.297ZM1017.2 225.763C1014.52 230.035 1012.05 235.142 1009.82 241.083C1007.58 247.023 1005.64 253.127 1004.02 259.393H1030.51C1028.8 253.127 1026.82 247.023 1024.59 241.083C1022.35 235.142 1020.01 230.035 1017.57 225.763H1017.2ZM1090.99 290.765C1090.99 291.986 1090.73 292.84 1090.2 293.329C1089.71 293.776 1088.86 294 1087.64 294H1074.63C1073.41 294 1072.54 293.776 1072.01 293.329C1071.52 292.84 1071.28 291.986 1071.28 290.765V216.241C1071.28 215.061 1071.48 214.166 1071.89 213.556C1073.72 210.87 1076.28 208.042 1079.58 205.072C1080.19 204.583 1080.72 204.339 1081.17 204.339C1081.65 204.339 1082.16 204.583 1082.69 205.072C1084.48 206.618 1085.99 208.103 1087.21 209.527C1088.43 210.911 1089.49 212.254 1090.38 213.556C1090.79 214.207 1090.99 215.102 1090.99 216.241V290.765ZM1181.87 279.046C1184.84 279.046 1187.16 278.741 1188.83 278.131C1190.54 277.521 1191.86 276.768 1192.8 275.873C1193.73 274.977 1194.55 274.082 1195.24 273.187C1195.89 272.373 1196.42 271.763 1196.83 271.356C1197.27 270.949 1197.89 270.664 1198.66 270.501C1199.31 270.298 1200.35 270.176 1201.77 270.135C1203.24 270.054 1204.68 270.013 1206.1 270.013C1207.57 270.013 1208.59 270.054 1209.16 270.135C1210.01 270.176 1210.6 270.339 1210.93 270.624C1211.25 270.908 1211.46 271.519 1211.54 272.455C1211.66 273.757 1211.72 275.303 1211.72 277.093C1211.76 278.884 1211.74 280.43 1211.66 281.732C1211.62 282.139 1211.54 282.485 1211.41 282.77C1211.33 283.054 1211.13 283.482 1210.8 284.051C1210.4 284.702 1209.6 285.659 1208.42 286.92C1207.24 288.141 1205.51 289.422 1203.24 290.765C1200.96 292.067 1198.01 293.186 1194.39 294.122C1190.81 295.058 1186.39 295.526 1181.14 295.526C1175.53 295.526 1170.28 294.814 1165.39 293.39C1160.51 291.925 1156.22 289.483 1152.52 286.065C1148.85 282.647 1145.98 278.029 1143.91 272.21C1141.88 266.392 1140.86 259.129 1140.86 250.421C1140.86 240.737 1142.53 232.517 1145.86 225.763C1149.24 218.967 1154.02 213.8 1160.21 210.26C1166.39 206.72 1173.72 204.95 1182.18 204.95C1188.12 204.95 1192.88 205.56 1196.46 206.781C1200.08 208.001 1202.83 209.446 1204.7 211.114C1206.57 212.742 1207.89 214.166 1208.67 215.387C1208.95 215.834 1209.16 216.241 1209.28 216.607C1209.4 216.933 1209.48 217.462 1209.52 218.194C1209.64 219.171 1209.66 220.595 1209.58 222.467C1209.54 224.339 1209.4 225.986 1209.16 227.411C1208.99 228.306 1208.73 228.896 1208.36 229.181C1208.2 229.343 1207.92 229.486 1207.51 229.608C1207.1 229.73 1206.49 229.791 1205.68 229.791C1204.38 229.791 1202.91 229.75 1201.28 229.669C1199.66 229.547 1198.43 229.425 1197.62 229.303C1196.64 229.14 1195.93 228.916 1195.48 228.631C1195.04 228.306 1194.59 227.818 1194.14 227.167C1193.41 226.109 1192.15 224.888 1190.36 223.504C1188.57 222.121 1185.62 221.429 1181.51 221.429C1175.73 221.429 1170.97 223.667 1167.23 228.143C1163.48 232.578 1161.61 239.78 1161.61 249.75C1161.61 259.678 1163.56 267.043 1167.47 271.844C1171.42 276.646 1176.22 279.046 1181.87 279.046ZM1253.65 295.526C1243.4 295.526 1235.28 292.8 1229.3 287.347C1223.32 281.895 1220.33 273.777 1220.33 262.994C1220.33 251.926 1223.42 243.666 1229.6 238.214C1235.83 232.721 1244.13 229.974 1254.51 229.974C1264.52 229.974 1272.53 232.68 1278.55 238.092C1284.58 243.463 1287.59 251.397 1287.59 261.896C1287.59 272.841 1284.58 281.183 1278.55 286.92C1272.53 292.657 1264.23 295.526 1253.65 295.526ZM1254.26 280.755C1258.74 280.755 1262.11 279.372 1264.39 276.605C1266.67 273.797 1267.81 269.016 1267.81 262.262C1267.81 255.833 1266.65 251.316 1264.33 248.712C1262.05 246.067 1258.66 244.745 1254.14 244.745C1249.79 244.745 1246.35 246.169 1243.82 249.017C1241.34 251.825 1240.1 256.402 1240.1 262.75C1240.1 269.382 1241.28 274.042 1243.64 276.727C1246.04 279.413 1249.58 280.755 1254.26 280.755ZM1356.62 237.909C1358.12 236.078 1360.44 234.308 1363.58 232.599C1366.75 230.849 1371.2 229.974 1376.94 229.974C1385.08 229.974 1390.96 232.07 1394.58 236.261C1398.2 240.452 1400.01 246.738 1400.01 255.121V290.765C1400.01 291.986 1399.75 292.84 1399.22 293.329C1398.73 293.776 1397.88 294 1396.66 294H1384.08C1382.86 294 1381.99 293.776 1381.46 293.329C1380.97 292.84 1380.73 291.986 1380.73 290.765V258.294C1380.73 253.737 1379.89 250.482 1378.22 248.529C1376.56 246.535 1374.05 245.538 1370.72 245.538C1367.75 245.538 1365.39 246.209 1363.64 247.552C1361.93 248.854 1360.71 250.624 1359.97 252.862V290.765C1359.97 291.986 1359.71 292.84 1359.18 293.329C1358.69 293.776 1357.84 294 1356.62 294H1344.04C1342.82 294 1341.95 293.776 1341.42 293.329C1340.93 292.84 1340.69 291.986 1340.69 290.765V258.294C1340.69 253.859 1339.77 250.624 1337.94 248.59C1336.11 246.555 1333.71 245.538 1330.74 245.538C1327.93 245.538 1325.67 246.23 1323.96 247.613C1322.25 248.997 1320.93 250.746 1320 252.862V290.765C1320 291.986 1319.73 292.84 1319.2 293.329C1318.71 293.776 1317.86 294 1316.64 294H1304.07C1302.85 294 1301.97 293.776 1301.44 293.329C1300.95 292.84 1300.71 291.986 1300.71 290.765V239.618C1300.71 238.641 1300.91 237.888 1301.32 237.359C1302.17 236.22 1303.19 235.06 1304.37 233.88C1305.59 232.7 1307.08 231.439 1308.83 230.096C1309.36 229.689 1309.86 229.486 1310.35 229.486C1310.8 229.486 1311.31 229.689 1311.88 230.096C1313.59 231.439 1315.05 232.721 1316.27 233.941C1317.49 235.162 1318.57 236.424 1319.51 237.726H1319.81C1321.2 235.976 1323.35 234.247 1326.28 232.538C1329.21 230.829 1333.4 229.974 1338.86 229.974C1344.06 229.974 1347.93 230.768 1350.45 232.354C1352.98 233.901 1355.03 235.752 1356.62 237.909ZM1455.43 229.974C1461.37 229.974 1466.26 231.317 1470.08 234.002C1473.95 236.647 1476.82 240.309 1478.69 244.989C1480.6 249.627 1481.56 254.958 1481.56 260.98C1481.56 267.49 1480.44 273.35 1478.2 278.558C1476 283.766 1472.75 287.896 1468.43 290.948C1464.12 294 1458.77 295.526 1452.38 295.526C1449.09 295.526 1446.36 295.139 1444.2 294.366C1442.09 293.634 1440.38 292.759 1439.08 291.742C1437.81 290.684 1436.82 289.728 1436.08 288.873H1435.84V314.874C1435.84 315.851 1435.64 316.603 1435.23 317.132C1433.52 319.37 1431.02 321.791 1427.72 324.396C1427.15 324.802 1426.64 325.006 1426.2 325.006C1425.71 325.006 1425.2 324.802 1424.67 324.396C1422.92 323.053 1421.44 321.791 1420.22 320.611C1419.04 319.431 1418.02 318.272 1417.16 317.132C1416.76 316.603 1416.55 315.851 1416.55 314.874V239.618C1416.55 238.641 1416.76 237.888 1417.16 237.359C1418.02 236.22 1419.04 235.06 1420.22 233.88C1421.44 232.7 1422.92 231.439 1424.67 230.096C1425.2 229.689 1425.75 229.486 1426.32 229.486C1426.85 229.486 1427.4 229.689 1427.97 230.096C1429.68 231.439 1431.14 232.721 1432.36 233.941C1433.58 235.162 1434.66 236.424 1435.6 237.726H1435.9C1436.59 236.871 1437.65 235.833 1439.08 234.613C1440.5 233.392 1442.51 232.314 1445.12 231.378C1447.76 230.442 1451.2 229.974 1455.43 229.974ZM1447.93 279.962C1452.32 279.962 1455.72 278.436 1458.12 275.384C1460.56 272.292 1461.78 267.836 1461.78 262.018C1461.78 251.031 1457.26 245.538 1448.23 245.538C1444.41 245.538 1441.58 246.332 1439.75 247.918C1437.92 249.465 1436.61 251.113 1435.84 252.862V266.107C1435.84 270.054 1436.86 273.35 1438.89 275.995C1440.93 278.639 1443.94 279.962 1447.93 279.962ZM1510.85 295.526C1504.87 295.526 1500.11 293.858 1496.57 290.521C1493.07 287.144 1491.32 282.505 1491.32 276.605C1491.32 273.553 1491.87 270.725 1492.97 268.121C1494.11 265.476 1496.06 263.157 1498.83 261.163C1501.64 259.129 1505.54 257.501 1510.55 256.28C1515.59 255.06 1522.02 254.347 1529.83 254.144C1529.83 250.441 1528.9 247.776 1527.03 246.148C1525.2 244.521 1522.43 243.707 1518.73 243.707C1515.39 243.707 1512.66 244.277 1510.55 245.416C1508.43 246.555 1507.11 247.328 1506.58 247.735C1506.01 248.224 1505.32 248.407 1504.51 248.285C1503.41 248.122 1502.23 247.837 1500.97 247.43C1499.74 247.023 1498.42 246.555 1497 246.026C1496.79 245.945 1496.57 245.823 1496.33 245.66C1496.08 245.457 1495.94 245.172 1495.9 244.806C1495.9 244.602 1495.92 244.358 1495.96 244.073C1496 243.748 1496.1 243.178 1496.27 242.364C1496.43 241.55 1496.67 240.554 1497 239.374C1497.32 238.153 1497.63 237.217 1497.91 236.566C1498.28 235.874 1498.89 235.223 1499.74 234.613C1500.44 234.043 1502.53 233.128 1506.03 231.866C1509.53 230.605 1514.6 229.974 1521.23 229.974C1539.5 229.974 1548.63 238.865 1548.63 256.646V291.192C1548.63 291.965 1548.41 292.637 1547.96 293.207C1547.56 293.736 1546.84 294 1545.83 294H1536.67C1536.02 294 1535.43 293.919 1534.9 293.756C1534.41 293.552 1533.94 293.186 1533.5 292.657L1529.71 287.774H1529.29C1527.41 290.501 1524.89 292.474 1521.72 293.695C1518.58 294.916 1514.96 295.526 1510.85 295.526ZM1517.57 281.366C1521.31 281.366 1524.14 280.41 1526.05 278.497C1527.96 276.585 1529.18 274.611 1529.71 272.577V265.802C1524.06 265.802 1519.8 266.249 1516.96 267.145C1514.15 267.999 1512.28 269.138 1511.34 270.562C1510.41 271.946 1509.94 273.451 1509.94 275.079C1509.94 277.439 1510.67 279.087 1512.13 280.023C1513.6 280.918 1515.41 281.366 1517.57 281.366ZM1624.93 255.121V290.765C1624.93 291.986 1624.66 292.84 1624.13 293.329C1623.65 293.776 1622.79 294 1621.57 294H1609C1607.78 294 1606.9 293.776 1606.37 293.329C1605.88 292.84 1605.64 291.986 1605.64 290.765V258.294C1605.64 253.859 1604.7 250.624 1602.83 248.59C1600.96 246.555 1598.42 245.538 1595.2 245.538C1591.99 245.538 1589.51 246.23 1587.76 247.613C1586.05 248.997 1584.73 250.746 1583.79 252.862V290.765C1583.79 291.986 1583.53 292.84 1583 293.329C1582.51 293.776 1581.65 294 1580.43 294H1567.86C1566.64 294 1565.76 293.776 1565.24 293.329C1564.75 292.84 1564.5 291.986 1564.5 290.765V239.618C1564.5 238.641 1564.71 237.888 1565.11 237.359C1565.97 236.22 1566.99 235.06 1568.17 233.88C1569.39 232.7 1570.87 231.439 1572.62 230.096C1573.15 229.689 1573.66 229.486 1574.15 229.486C1574.59 229.486 1575.1 229.689 1575.67 230.096C1577.38 231.439 1578.85 232.721 1580.07 233.941C1581.29 235.162 1582.37 236.424 1583.3 237.726H1583.61C1584.3 236.83 1585.34 235.793 1586.72 234.613C1588.1 233.392 1590.04 232.314 1592.52 231.378C1595.04 230.442 1598.26 229.974 1602.16 229.974C1605.99 229.974 1609.63 230.747 1613.09 232.293C1616.55 233.84 1619.37 236.444 1621.57 240.106C1623.81 243.768 1624.93 248.773 1624.93 255.121ZM1638.6 210.992C1638.6 210.463 1638.76 209.995 1639.09 209.588C1639.41 209.181 1639.84 208.653 1640.37 208.001C1641.51 206.699 1642.83 205.336 1644.34 203.912C1645.84 202.447 1647.37 201.043 1648.91 199.701C1649.89 198.928 1650.62 198.541 1651.11 198.541C1651.6 198.541 1652.35 198.928 1653.37 199.701C1656.67 202.549 1659.47 205.316 1661.79 208.001C1662.32 208.612 1662.75 209.141 1663.07 209.588C1663.44 209.995 1663.62 210.463 1663.62 210.992C1663.62 211.521 1663.44 211.989 1663.07 212.396C1662.75 212.803 1662.3 213.352 1661.73 214.044C1660.63 215.305 1659.35 216.668 1657.89 218.133C1656.42 219.557 1654.92 220.921 1653.37 222.223C1652.8 222.711 1652.35 223.036 1652.03 223.199C1651.7 223.321 1651.4 223.382 1651.11 223.382C1650.83 223.382 1650.52 223.321 1650.2 223.199C1649.91 223.036 1649.44 222.711 1648.79 222.223C1647.16 220.921 1645.64 219.557 1644.21 218.133C1642.79 216.668 1641.51 215.265 1640.37 213.922C1639.84 213.271 1639.41 212.762 1639.09 212.396C1638.76 211.989 1638.6 211.521 1638.6 210.992ZM1660.69 290.765C1660.69 291.986 1660.43 292.84 1659.9 293.329C1659.41 293.776 1658.56 294 1657.34 294H1644.76C1643.54 294 1642.67 293.776 1642.14 293.329C1641.65 292.84 1641.41 291.986 1641.41 290.765V234.735C1641.41 233.514 1641.65 232.68 1642.14 232.232C1642.67 231.744 1643.54 231.5 1644.76 231.5H1657.34C1658.56 231.5 1659.41 231.744 1659.9 232.232C1660.43 232.68 1660.69 233.514 1660.69 234.735V290.765ZM1707.26 295.526C1697.01 295.526 1688.89 292.8 1682.91 287.347C1676.93 281.895 1673.94 273.777 1673.94 262.994C1673.94 251.926 1677.03 243.666 1683.22 238.214C1689.44 232.721 1697.74 229.974 1708.12 229.974C1718.13 229.974 1726.14 232.68 1732.17 238.092C1738.19 243.463 1741.2 251.397 1741.2 261.896C1741.2 272.841 1738.19 281.183 1732.17 286.92C1726.14 292.657 1717.84 295.526 1707.26 295.526ZM1707.87 280.755C1712.35 280.755 1715.73 279.372 1718.01 276.605C1720.28 273.797 1721.42 269.016 1721.42 262.262C1721.42 255.833 1720.26 251.316 1717.95 248.712C1715.67 246.067 1712.27 244.745 1707.75 244.745C1703.4 244.745 1699.96 246.169 1697.44 249.017C1694.96 251.825 1693.71 256.402 1693.71 262.75C1693.71 269.382 1694.89 274.042 1697.25 276.727C1699.66 279.413 1703.2 280.755 1707.87 280.755ZM1814.75 255.121V290.765C1814.75 291.986 1814.48 292.84 1813.95 293.329C1813.47 293.776 1812.61 294 1811.39 294H1798.82C1797.6 294 1796.72 293.776 1796.19 293.329C1795.7 292.84 1795.46 291.986 1795.46 290.765V258.294C1795.46 253.859 1794.52 250.624 1792.65 248.59C1790.78 246.555 1788.24 245.538 1785.02 245.538C1781.81 245.538 1779.33 246.23 1777.58 247.613C1775.87 248.997 1774.55 250.746 1773.61 252.862V290.765C1773.61 291.986 1773.34 292.84 1772.82 293.329C1772.33 293.776 1771.47 294 1770.25 294H1757.68C1756.46 294 1755.58 293.776 1755.05 293.329C1754.57 292.84 1754.32 291.986 1754.32 290.765V239.618C1754.32 238.641 1754.53 237.888 1754.93 237.359C1755.79 236.22 1756.8 235.06 1757.98 233.88C1759.21 232.7 1760.69 231.439 1762.44 230.096C1762.97 229.689 1763.48 229.486 1763.97 229.486C1764.41 229.486 1764.92 229.689 1765.49 230.096C1767.2 231.439 1768.67 232.721 1769.89 233.941C1771.11 235.162 1772.19 236.424 1773.12 237.726H1773.43C1774.12 236.83 1775.16 235.793 1776.54 234.613C1777.92 233.392 1779.86 232.314 1782.34 231.378C1784.86 230.442 1788.07 229.974 1791.98 229.974C1795.81 229.974 1799.45 230.747 1802.91 232.293C1806.36 233.84 1809.19 236.444 1811.39 240.106C1813.63 243.768 1814.75 248.773 1814.75 255.121Z" fill="#20222C"/>
<rect x="399" y="187" width="550" height="110" rx="55" fill="#C71C4B" fill-opacity="0.1"/>
<rect x="464" y="187" width="485" height="110" rx="55" fill="#C71C4B" fill-opacity="0.2"/>
<rect x="529" y="187" width="420" height="110" rx="55" fill="#C71C4B" fill-opacity="0.3"/>
<rect x="594" y="187" width="355" height="110" rx="55" fill="#C71C4B" fill-opacity="0.2"/>
<rect x="659" y="187" width="290" height="110" rx="55" fill="#C71C4B" fill-opacity="0.2"/>
<rect x="724" y="187" width="225" height="110" rx="55" fill="#C71C4B" fill-opacity="0.2"/>
<rect x="789" y="187" width="160" height="110" rx="55" fill="#C71C4B" fill-opacity="0.2"/>
<rect x="839" y="187" width="110" height="110" rx="55" fill="#C71C4B" fill-opacity="0.2"/>
</svg>
