<svg width="916" height="225" viewBox="0 0 916 225" fill="none" xmlns="http://www.w3.org/2000/svg">
<path d="M20.0049 91.4026C20.0049 91.4026 53.1642 76.0964 79.0077 64.3409M168.262 133.628L210.935 113.773C263.779 81.7626 212.624 3.56208 169.687 23.0932C146.637 33.5782 108.962 50.7155 79.0077 64.3409M79.0077 64.3409L138.636 198.571" stroke="#D61C4E" stroke-width="40" stroke-linecap="round"/>
<path d="M333.376 93.2156C333.376 94.0294 332.928 94.4363 332.033 94.4363C330.487 94.4363 324.363 94.1311 313.662 93.5208C313.417 103.815 313.295 110.997 313.295 115.066C313.295 119.868 313.479 127.09 313.845 136.734C314.252 146.377 314.455 153.6 314.455 158.401C314.455 159.174 314.272 159.663 313.906 159.866C313.784 159.947 313.214 160.049 312.197 160.171C309.755 160.497 306.175 160.659 301.455 160.659C296.206 160.659 292.523 160.497 290.407 160.171C289.268 159.968 288.698 159.337 288.698 158.279C288.698 153.478 288.902 146.275 289.309 136.673C289.715 127.07 289.919 119.868 289.919 115.066C289.919 111.892 289.756 104.812 289.431 93.8259C281.293 94.6397 274.803 95.0466 269.96 95.0466C269.309 95.0466 268.984 94.8432 268.984 94.4363C268.984 93.9073 269.269 92.3407 269.838 89.7366C270.489 86.8883 270.856 85.1589 270.937 84.5486C271.059 82.6361 271.201 80.7237 271.364 78.8113C271.649 75.7595 272.137 74.2336 272.829 74.2336C272.91 74.2336 273.195 74.254 273.684 74.2947C280.275 75.1492 290.021 75.5764 302.919 75.5764C306.582 75.5764 313.336 75.1899 323.183 74.4167C328.473 74.0098 331.138 73.8064 331.179 73.8064C331.993 73.8064 332.46 73.8674 332.583 73.9895C332.705 74.0709 332.786 74.4574 332.827 75.1492C332.827 76.2478 332.786 77.7737 332.705 79.7268C332.623 81.8834 332.583 83.4093 332.583 84.3044C332.583 85.3217 332.705 86.8272 332.949 88.821C333.234 90.7742 333.376 92.239 333.376 93.2156ZM400.881 129.654C400.881 132.787 401.064 137.446 401.43 143.631C401.796 149.816 401.979 154.454 401.979 157.547C401.979 159.174 401.267 160.049 399.843 160.171C394.798 160.537 389.02 160.72 382.509 160.72C381.736 160.72 381.207 159.561 380.922 157.241C380.678 154.881 380.373 153.681 380.007 153.64C379.681 153.803 379.254 154.149 378.725 154.678C374.168 159.276 369.285 161.575 364.077 161.575C356.142 161.575 349.571 158.442 344.362 152.176C339.439 146.316 336.977 139.317 336.977 131.179C336.977 121.78 339.52 114.212 344.606 108.474C349.896 102.534 357.139 99.5632 366.335 99.5632C372.723 99.5632 377.769 101.801 381.472 106.277C381.634 106.481 381.777 106.582 381.899 106.582C382.265 106.582 382.672 105.606 383.12 103.653C383.608 101.659 384.178 100.662 384.829 100.662C386.334 100.662 389.203 101.089 393.435 101.944C397.463 102.757 400.352 103.449 402.102 104.019C402.712 104.263 403.017 104.588 403.017 104.995C403.017 105.158 402.956 105.585 402.834 106.277C401.532 113.642 400.881 121.434 400.881 129.654ZM381.228 130.02C381.228 126.561 380.129 123.713 377.932 121.475C375.775 119.196 372.947 118.057 369.448 118.057C365.948 118.057 363.12 119.176 360.964 121.414C358.807 123.652 357.729 126.52 357.729 130.02C357.729 133.316 358.868 136.144 361.147 138.504C363.426 140.864 366.193 142.044 369.448 142.044C372.906 142.044 375.734 140.925 377.932 138.687C380.129 136.408 381.228 133.519 381.228 130.02ZM480.837 120.315C480.837 129.308 476.422 136.144 467.592 140.823C466.778 141.23 466.372 141.657 466.372 142.105C466.372 142.796 468.264 145.685 472.048 150.772C475.832 155.817 477.724 158.462 477.724 158.706C477.724 159.805 472.333 160.354 461.55 160.354C457.399 160.354 454.999 159.825 454.348 158.767C452.72 156.041 450.177 152.135 446.718 147.049C446.515 146.804 442.853 146.52 435.732 146.194C435.732 147.455 435.752 149.47 435.793 152.237C435.834 155.003 435.854 157.058 435.854 158.401C435.854 159.622 435.264 160.293 434.084 160.415C433.352 160.497 430.137 160.537 424.44 160.537C419.517 160.537 416.648 160.456 415.834 160.293C414.736 160.09 414.187 159.256 414.187 157.791V120.437C414.187 115.432 414.003 107.945 413.637 97.9763C413.271 88.0072 413.088 80.5406 413.088 75.5764C413.088 74.5999 413.637 74.0912 414.736 74.0505C416.892 74.0505 420.127 74.0098 424.44 73.9285C425.58 73.8471 427.553 73.6029 430.361 73.196C432.843 72.8298 434.796 72.6467 436.22 72.6467C436.871 72.6467 437.197 73.2367 437.197 74.4167C437.197 75.963 437.075 78.0585 436.831 80.7034C436.546 83.7958 436.383 85.9117 436.342 87.051C435.976 95.7994 435.793 102.574 435.793 107.376C435.793 108.515 435.935 109.105 436.22 109.146C436.586 108.902 437.075 108.454 437.685 107.803C442.975 102.31 449.404 99.5632 456.972 99.5632C464.093 99.5632 469.749 101.191 473.94 104.446C478.538 108.067 480.837 113.357 480.837 120.315ZM456.606 124.282C456.606 119.359 453.819 116.897 448.244 116.897C445.762 116.897 443.117 117.833 440.31 119.705C437.299 121.699 435.793 123.876 435.793 126.236C435.793 129.613 436.261 131.647 437.197 132.339C437.929 132.827 440.269 133.072 444.216 133.072C452.476 133.072 456.606 130.142 456.606 124.282ZM551.027 104.69C551.027 107.701 550.885 112.218 550.6 118.24C550.315 124.262 550.173 128.779 550.173 131.79C550.173 134.719 550.275 139.114 550.478 144.973C550.681 150.833 550.783 155.207 550.783 158.096C550.783 159.195 550.275 159.886 549.257 160.171C547.711 160.578 544.436 160.781 539.431 160.781C534.995 160.781 531.903 160.659 530.153 160.415C529.38 160.293 528.892 159.805 528.688 158.95C528.566 157.73 528.444 156.509 528.322 155.288C528.119 153.417 527.834 152.481 527.468 152.481C528.037 152.481 525.983 153.864 521.303 156.631C516.624 159.398 512.372 160.781 508.547 160.781C497.764 160.781 491.376 155.919 489.382 146.194C488.487 141.677 488.039 135.126 488.039 126.541C488.039 117.263 488.792 109.939 490.297 104.568C490.745 102.9 491.579 102.066 492.8 102.066C494.672 102.066 497.52 102.086 501.345 102.127C505.17 102.167 508.018 102.188 509.89 102.188C511.151 102.188 511.782 102.717 511.782 103.775C511.782 104.059 511.741 104.487 511.66 105.056C510.805 110.59 510.378 116.205 510.378 121.902C510.378 128.982 510.602 133.824 511.049 136.428C511.782 140.904 514.447 143.142 519.045 143.142C520.835 143.142 522.768 142.349 524.843 140.762C526.959 139.175 528.058 137.527 528.139 135.818C528.221 134.313 528.261 124.099 528.261 105.178C528.261 103.836 528.363 103.042 528.566 102.798C528.811 102.391 529.543 102.188 530.764 102.188C532.757 102.188 535.748 102.208 539.736 102.249C543.764 102.289 546.775 102.31 548.769 102.31C549.99 102.31 550.702 102.615 550.905 103.225C550.987 103.551 551.027 104.039 551.027 104.69ZM658.632 157.913C658.632 159.337 658.022 160.13 656.801 160.293C655.581 160.456 652.569 160.537 647.768 160.537C642.804 160.537 639.711 160.415 638.491 160.171C637.27 159.927 636.66 158.93 636.66 157.18C636.66 155.309 636.721 152.521 636.843 148.819C636.965 145.075 637.026 142.267 637.026 140.396C637.026 133.275 636.944 128.209 636.782 125.198C636.538 120.356 634.239 117.935 629.885 117.935C627.972 117.935 626.06 118.749 624.147 120.376C622.276 121.963 621.238 123.733 621.035 125.686C620.872 127.395 620.791 132.4 620.791 140.701C620.791 142.613 620.852 145.523 620.974 149.429C621.096 153.295 621.157 156.204 621.157 158.157C621.157 159.5 620.567 160.171 619.387 160.171H600.893C599.754 160.171 599.184 159.337 599.184 157.669C599.184 155.756 599.245 152.888 599.367 149.063C599.489 145.238 599.55 142.349 599.55 140.396C599.55 138.89 599.51 136.612 599.428 133.56C599.347 130.508 599.306 128.209 599.306 126.663C599.306 120.844 597.089 117.935 592.653 117.935C590.863 117.935 588.93 118.627 586.855 120.01C584.576 121.516 583.437 123.102 583.437 124.771C583.437 128.474 583.457 134.007 583.498 141.372C583.539 148.737 583.559 154.251 583.559 157.913C583.559 158.93 583.437 159.561 583.193 159.805C582.949 160.049 582.318 160.212 581.301 160.293C579.47 160.456 576.581 160.537 572.634 160.537C570.07 160.537 567.161 160.415 563.906 160.171C562.929 160.09 562.339 159.947 562.136 159.744C561.973 159.54 561.892 158.93 561.892 157.913C561.892 154.658 561.912 149.795 561.953 143.325C561.993 136.815 562.014 131.932 562.014 128.677C562.014 122.004 561.525 114.497 560.549 106.155C560.467 105.667 560.427 105.301 560.427 105.056C560.427 104.365 560.712 103.897 561.281 103.653C562.176 103.286 563.865 102.981 566.347 102.737C569.399 102.452 571.21 102.269 571.779 102.188C572.186 102.106 573.793 101.679 576.601 100.906C578.595 100.336 580.202 100.052 581.423 100.052C582.196 100.052 582.603 101.476 582.644 104.324C582.684 107.132 582.847 108.535 583.132 108.535C583.539 108.373 584.007 108.088 584.536 107.681C588.198 104.833 591.087 102.879 593.203 101.822C596.336 100.316 599.733 99.5632 603.396 99.5632C607.139 99.5632 610.476 100.397 613.405 102.066C616.701 103.937 618.837 106.562 619.814 109.939C621.971 107.01 624.941 104.548 628.725 102.554C632.509 100.56 636.192 99.5632 639.772 99.5632C645.144 99.5632 649.518 100.804 652.895 103.286C656.72 106.094 658.632 110.102 658.632 115.31C658.632 117.467 658.571 120.722 658.449 125.076C658.327 129.389 658.266 132.624 658.266 134.781C658.266 137.344 658.327 141.21 658.449 146.377C658.571 151.504 658.632 155.349 658.632 157.913ZM694.399 86.8069C694.399 93.887 690.411 97.427 682.436 97.427C679.018 97.427 676.19 96.5318 673.952 94.7415C671.511 92.7883 670.29 90.1435 670.29 86.8069C670.29 83.6331 671.551 81.0289 674.074 78.9944C676.394 77.1226 679.181 76.1868 682.436 76.1868C685.61 76.1868 688.356 77.143 690.676 79.0554C693.158 81.0899 694.399 83.6737 694.399 86.8069ZM692.812 132.156C692.812 135.126 692.873 139.562 692.995 145.462C693.117 151.321 693.178 155.716 693.178 158.645C693.178 159.5 692.67 160.008 691.652 160.171C690.269 160.415 687.156 160.537 682.314 160.537C677.431 160.537 674.298 160.415 672.915 160.171C672.019 160.008 671.47 159.744 671.267 159.378C671.185 159.215 671.145 158.605 671.145 157.547C671.145 154.739 671.206 150.528 671.328 144.912C671.45 139.256 671.511 135.004 671.511 132.156C671.511 120.6 671.063 111.404 670.168 104.568C670.087 103.917 670.046 103.49 670.046 103.286C670.046 102.473 670.595 102.066 671.694 102.066C672.833 102.066 674.562 102.188 676.882 102.432C679.242 102.676 681.012 102.798 682.192 102.798C683.372 102.798 685.142 102.696 687.502 102.493C689.862 102.289 691.632 102.188 692.812 102.188C693.789 102.188 694.277 102.595 694.277 103.408C694.277 103.571 694.236 103.958 694.155 104.568C693.26 112.503 692.812 121.699 692.812 132.156ZM771.975 130.813C771.975 139.521 769.411 146.743 764.284 152.481C758.994 158.421 752.057 161.392 743.471 161.392C740.338 161.392 736.981 160.619 733.4 159.073C729.82 157.526 728.192 156.753 728.518 156.753C727.989 156.753 727.724 157.364 727.724 158.584C727.724 160.659 727.826 163.772 728.029 167.923C728.233 172.114 728.334 175.247 728.334 177.322C728.334 178.624 727.663 179.275 726.32 179.275L713.869 179.336C711.062 179.336 709.251 179.234 708.437 179.031C707.216 178.746 706.606 177.993 706.606 176.773L706.728 129.776C706.728 120.295 706.016 112.299 704.592 105.789C704.51 105.382 704.47 105.036 704.47 104.751C704.47 104.141 704.714 103.734 705.202 103.531C706.789 102.92 709.82 102.269 714.296 101.577C718.65 100.886 721.804 100.54 723.757 100.54C725.344 100.54 726.239 101.598 726.442 103.714C726.687 105.789 726.971 106.826 727.297 106.826C726.89 106.826 728.619 105.728 732.485 103.531C736.391 101.293 739.931 100.174 743.105 100.174C751.935 100.174 758.994 103.083 764.284 108.902C769.411 114.517 771.975 121.821 771.975 130.813ZM749.331 130.691C749.331 127.436 748.334 124.588 746.34 122.146C744.183 119.583 741.518 118.301 738.344 118.301C735.089 118.301 732.485 119.583 730.532 122.146C728.823 124.466 727.968 127.314 727.968 130.691C727.968 134.15 728.863 137.018 730.654 139.297C732.566 141.779 735.211 143.02 738.588 143.02C745.75 143.02 749.331 138.911 749.331 130.691ZM841.311 129.654C841.311 132.787 841.494 137.446 841.86 143.631C842.226 149.816 842.409 154.454 842.409 157.547C842.409 159.174 841.697 160.049 840.273 160.171C835.227 160.537 829.449 160.72 822.939 160.72C822.166 160.72 821.637 159.561 821.352 157.241C821.108 154.881 820.803 153.681 820.437 153.64C820.111 153.803 819.684 154.149 819.155 154.678C814.597 159.276 809.715 161.575 804.506 161.575C796.572 161.575 790 158.442 784.792 152.176C779.868 146.316 777.407 139.317 777.407 131.179C777.407 121.78 779.95 114.212 785.036 108.474C790.326 102.534 797.569 99.5632 806.765 99.5632C813.153 99.5632 818.199 101.801 821.901 106.277C822.064 106.481 822.207 106.582 822.329 106.582C822.695 106.582 823.102 105.606 823.549 103.653C824.038 101.659 824.607 100.662 825.258 100.662C826.764 100.662 829.632 101.089 833.864 101.944C837.893 102.757 840.782 103.449 842.531 104.019C843.142 104.263 843.447 104.588 843.447 104.995C843.447 105.158 843.386 105.585 843.264 106.277C841.962 113.642 841.311 121.434 841.311 129.654ZM821.657 130.02C821.657 126.561 820.559 123.713 818.361 121.475C816.205 119.196 813.377 118.057 809.877 118.057C806.378 118.057 803.55 119.176 801.394 121.414C799.237 123.652 798.159 126.52 798.159 130.02C798.159 133.316 799.298 136.144 801.577 138.504C803.855 140.864 806.622 142.044 809.877 142.044C813.336 142.044 816.164 140.925 818.361 138.687C820.559 136.408 821.657 133.519 821.657 130.02ZM913.393 116.653C913.393 124.547 913.149 129.348 912.661 131.057C912.05 133.092 907.595 140.457 899.294 153.152C897.992 155.146 894.635 159.764 889.223 167.007C883.242 174.982 879.844 179.194 879.03 179.641C878.054 180.252 871.808 180.557 860.292 180.557C858.543 180.557 857.363 180.353 856.752 179.947C856.223 178.278 855.552 176.305 854.738 174.026C854.087 172.602 853.436 171.157 852.785 169.693C851.849 167.577 851.381 166.173 851.381 165.481C851.381 164.708 851.727 164.322 852.419 164.322C863.731 164.322 869.387 161.738 869.387 156.57C869.387 156.122 866.62 152.074 861.086 144.424C855.349 136.571 852.195 131.607 851.625 129.531C851.3 128.351 851.137 124.14 851.137 116.897C851.137 115.432 851.178 113.235 851.259 110.305C851.341 107.335 851.381 105.117 851.381 103.653C851.381 102.595 852.053 102.066 853.396 102.066C855.471 102.066 858.604 102.127 862.795 102.249C867.027 102.371 870.18 102.432 872.255 102.432C873.11 102.432 873.537 103.063 873.537 104.324C873.537 105.463 873.476 107.193 873.354 109.512C873.232 111.791 873.171 113.5 873.171 114.639C873.171 119.766 873.252 123.245 873.415 125.076C873.537 126.5 874.758 129.145 877.077 133.01C879.519 137.039 881.289 139.053 882.387 139.053C883.323 139.053 884.91 137.059 887.148 133.072C889.223 129.287 890.342 126.744 890.505 125.442C890.912 121.861 891.115 117.976 891.115 113.784C891.115 112.686 891.014 111.017 890.81 108.78C890.607 106.542 890.505 104.853 890.505 103.714C890.505 102.941 890.932 102.554 891.787 102.554C893.862 102.554 896.954 102.473 901.064 102.31C905.214 102.147 908.327 102.066 910.402 102.066C911.46 102.066 912.172 102.595 912.539 103.653C913.108 105.524 913.393 109.858 913.393 116.653Z" fill="#D61C4E"/>
</svg>
